<svg width="29" height="29" viewBox="0 0 29 29" fill="none" xmlns="http://www.w3.org/2000/svg">
<path d="M23.4542 16.501C22.9897 16.501 22.5941 16.1458 22.5525 15.6745C22.508 15.1761 22.8769 14.7361 23.3753 14.6921H23.3762C23.437 14.1955 23.8856 13.8452 24.3863 13.9032C24.8833 13.9644 25.2363 14.4166 25.1751 14.9133C25.0714 15.7565 24.3813 16.4226 23.5348 16.4974C23.5076 16.5001 23.4805 16.501 23.4542 16.501Z" fill="black"/>
<path d="M8.73486 17.7887C8.26995 17.7887 7.87437 17.433 7.83314 16.9613C7.78919 16.4624 8.15848 16.0234 8.65692 15.9794L23.3758 14.6916C23.8769 14.6454 24.3137 15.017 24.3572 15.5154C24.4012 16.0143 24.0319 16.4534 23.5335 16.4973L8.81461 17.7851C8.78833 17.7874 8.76114 17.7887 8.73486 17.7887Z" fill="black"/>
<path d="M24.2764 15.7091C24.2392 15.7091 24.202 15.7068 24.1644 15.7023C23.6674 15.6411 23.3144 15.1889 23.3755 14.6922L24.4753 5.76432C24.5369 5.2677 24.9923 4.91471 25.4853 4.97588C25.9824 5.03706 26.3354 5.48927 26.2742 5.9859L25.1745 14.9138C25.1183 15.3728 24.7272 15.7091 24.2764 15.7091Z" fill="black"/>
<path d="M6.32128 8.44796C5.85638 8.44796 5.4608 8.09226 5.41957 7.62056C5.37561 7.12167 5.74491 6.68259 6.24335 6.63864L25.2964 4.97159C25.7966 4.92583 26.2343 5.29693 26.2778 5.79537C26.3218 6.29426 25.9525 6.73334 25.454 6.77729L6.40103 8.44434C6.3743 8.4466 6.34757 8.44796 6.32128 8.44796Z" fill="black"/>
<path d="M6.08497 6.67721C5.63819 6.67721 5.24895 6.34643 5.18823 5.89104V5.89014C4.68798 5.89014 4.28198 5.48459 4.28198 4.98389C4.28198 4.48318 4.68798 4.07764 5.18823 4.07764C6.09267 4.07764 6.8648 4.7537 6.98488 5.65043C7.05103 6.14661 6.70258 6.60245 6.20641 6.66906C6.16517 6.6745 6.1253 6.67721 6.08497 6.67721Z" fill="black"/>
<path d="M5.18783 5.89062H3.625C3.12475 5.89062 2.71875 5.48462 2.71875 4.98438C2.71875 4.48413 3.12475 4.07812 3.625 4.07812H5.18783C5.68808 4.07812 6.09408 4.48413 6.09408 4.98438C6.09408 5.48462 5.68853 5.89062 5.18783 5.89062Z" fill="black"/>
<path d="M7.3512 16.1726C6.90442 16.1726 6.51474 15.8418 6.45447 15.3859L5.18799 5.89068C5.12183 5.39451 5.47029 4.93866 5.96646 4.8725C6.45946 4.80544 6.91892 5.1548 6.98463 5.65097L8.25066 15.1467C8.31681 15.6429 7.96836 16.0987 7.47219 16.1649C7.43141 16.1703 7.39153 16.1726 7.3512 16.1726Z" fill="black"/>
<path d="M11.4268 24.9219C9.7076 24.9219 8.25488 23.4692 8.25488 21.75C8.25488 20.0308 9.7076 18.5781 11.4268 18.5781C13.1459 18.5781 14.5986 20.0308 14.5986 21.75C14.5986 23.4692 13.1459 24.9219 11.4268 24.9219ZM11.4268 20.3906C10.7027 20.3906 10.0674 21.0259 10.0674 21.75C10.0674 22.4741 10.7027 23.1094 11.4268 23.1094C12.1509 23.1094 12.7861 22.4741 12.7861 21.75C12.7861 21.0259 12.1504 20.3906 11.4268 20.3906Z" fill="black"/>
<path d="M20.0361 24.9219C18.317 24.9219 16.8643 23.4692 16.8643 21.75C16.8643 20.0308 18.317 18.5781 20.0361 18.5781C21.7553 18.5781 23.208 20.0308 23.208 21.75C23.208 23.4692 21.7553 24.9219 20.0361 24.9219ZM20.0361 20.3906C19.312 20.3906 18.6768 21.0259 18.6768 21.75C18.6768 22.4741 19.312 23.1094 20.0361 23.1094C20.7602 23.1094 21.3955 22.4741 21.3955 21.75C21.3955 21.0259 20.7598 20.3906 20.0361 20.3906Z" fill="black"/>
<path d="M9.14476 17.7458C7.79399 17.7458 6.6358 16.7498 6.45409 15.3859C6.38794 14.8897 6.73685 14.4339 7.23302 14.3682C7.72557 14.3007 8.18504 14.6509 8.25074 15.1471C8.31508 15.6288 8.7519 15.9682 9.22768 15.9301C9.73745 15.8866 10.1661 16.2559 10.2096 16.7539C10.2536 17.2523 9.88426 17.6919 9.38627 17.7358C9.30516 17.7422 9.22405 17.7458 9.14476 17.7458Z" fill="black"/>
</svg>
