<svg width="12" height="14" viewBox="0 0 12 14" fill="none" xmlns="http://www.w3.org/2000/svg">
<path d="M10.8182 5.90909C10.8182 9.72727 5.90909 13 5.90909 13C5.90909 13 1 9.72727 1 5.90909C1 4.60712 1.51721 3.35847 2.43784 2.43784C3.35847 1.51721 4.60712 1 5.90909 1C7.21106 1 8.45971 1.51721 9.38034 2.43784C10.301 3.35847 10.8182 4.60712 10.8182 5.90909Z" stroke="black" stroke-linecap="round" stroke-linejoin="round"/>
<path d="M5.90907 7.54543C6.81281 7.54543 7.54543 6.81281 7.54543 5.90907C7.54543 5.00533 6.81281 4.27271 5.90907 4.27271C5.00533 4.27271 4.27271 5.00533 4.27271 5.90907C4.27271 6.81281 5.00533 7.54543 5.90907 7.54543Z" stroke="black" stroke-linecap="round" stroke-linejoin="round"/>
</svg>
